HIERARCHY
ROOT Hips
{
	OFFSET -3.958830 18.904000 13.208200
	CHANNELS 6 Xposition Yposition Zposition Zrotation Yrotation Xrotation 
	JOINT LHipJoint
	{
		OFFSET 0.000000 0.000000 0.000000
		CHANNELS 3 Zrotation Yrotation Xrotation
		JOINT LeftUpLeg
		{
			OFFSET 1.800000 -1.400000 0.085000
			CHANNELS 3 Zrotation Yrotation Xrotation
			JOINT LeftLeg
			{
				OFFSET 2.215000 -6.000000 0.000000
				CHANNELS 3 Zrotation Yrotation Xrotation
				JOINT LeftFoot
				{
					OFFSET 2.500000 -6.900000 0.000000
					CHANNELS 3 Zrotation Yrotation Xrotation
					JOINT LeftToeBase
					{
						OFFSET 0.200000 -0.500000 1.950000
						CHANNELS 3 Zrotation Yrotation Xrotation
						End Site
						{
							OFFSET 0.000000 0.000000 0.000000
						}
					}
				}
			}
		}
	}
	JOINT RHipJoint
	{
		OFFSET 0.000000 0.000000 0.000000
		CHANNELS 3 Zrotation Yrotation Xrotation
		JOINT RightUpLeg
		{
			OFFSET -1.800000 -1.400000 0.085000
			CHANNELS 3 Zrotation Yrotation Xrotation
			JOINT RightLeg
			{
				OFFSET -2.215000 -6.000000 0.000000
				CHANNELS 3 Zrotation Yrotation Xrotation
				JOINT RightFoot
				{
					OFFSET -2.500000 -6.900000 0.000000
					CHANNELS 3 Zrotation Yrotation Xrotation
					JOINT RightToeBase
					{
						OFFSET -0.200000 -0.500000 1.950000
						CHANNELS 3 Zrotation Yrotation Xrotation
						End Site
						{
							OFFSET 0.000000 0.000000 0.000000
						}
					}
				}
			}
		}
	}
	JOINT LowerBack
	{
		OFFSET 0.000000 0.000000 0.000000
		CHANNELS 3 Zrotation Yrotation Xrotation
		JOINT Spine
		{
			OFFSET -0.087000 1.940000 -0.288900
			CHANNELS 3 Zrotation Yrotation Xrotation
			JOINT Spine1
			{
				OFFSET 0.000000 1.950000 0.060000
				CHANNELS 3 Zrotation Yrotation Xrotation
				JOINT Neck
				{
					OFFSET 0.000000 0.000000 0.000000
					CHANNELS 3 Zrotation Yrotation Xrotation
					JOINT Neck1
					{
						OFFSET 0.000000 1.600000 0.340000
						CHANNELS 3 Zrotation Yrotation Xrotation
						JOINT Head
						{
							OFFSET 0.000000 1.667000 -0.240000
							CHANNELS 3 Zrotation Yrotation Xrotation
							End Site
							{
								OFFSET 0.000000 0.000000 0.000000
							}
						}
					}
				}
				JOINT LeftShoulder
				{
					OFFSET 0.000000 0.000000 0.000000
					CHANNELS 3 Zrotation Yrotation Xrotation
					JOINT LeftArm
					{
						OFFSET 2.700000 1.550000 -0.730000
						CHANNELS 3 Zrotation Yrotation Xrotation
						JOINT LeftForeArm
						{
							OFFSET 5.450000 0.000000 0.000000
							CHANNELS 3 Zrotation Yrotation Xrotation
							JOINT LeftHand
							{
								OFFSET 3.450000 0.000000 0.000000
								CHANNELS 3 Zrotation Yrotation Xrotation
								JOINT LeftHandIndex1
								{
									OFFSET 0.750000 0.000000 0.000000
									CHANNELS 3 Zrotation Yrotation Xrotation
									End Site
									{
										OFFSET 0.000000 0.000000 0.000000
									}
								}
							}
						}
					}
				}
				JOINT RightShoulder
				{
					OFFSET 0.000000 0.000000 0.000000
					CHANNELS 3 Zrotation Yrotation Xrotation
					JOINT RightArm
					{
						OFFSET -2.700000 1.550000 -0.730000
						CHANNELS 3 Zrotation Yrotation Xrotation
						JOINT RightForeArm
						{
							OFFSET -5.450000 0.000000 0.000000
							CHANNELS 3 Zrotation Yrotation Xrotation
							JOINT RightHand
							{
								OFFSET -3.450000 0.000000 0.000000
								CHANNELS 3 Zrotation Yrotation Xrotation
								JOINT RightHandIndex1
								{
									OFFSET -0.750000 0.000000 0.000000
									CHANNELS 3 Zrotation Yrotation Xrotation
									End Site
									{
										OFFSET 0.000000 0.000000 0.000000
									}
								}
							}
						}
					}
				}
			}
		}
	}
}
MOTION
Frames: 7
Frame Time: 0.016667
-3.102910 17.565160 2.139220 9.131478 -28.473087 -22.670985 -15.942572 9.402607 7.577635 35.562028 2.820684 -32.638971 -81.186032 26.441282 13.795700 2.080203 11.801027 0.740175 0.435650 -0.057290 0.725420 18.064818 -9.201236 1.458502 -20.803222 -0.262823 6.092967 7.948810 -6.629584 6.598068 -0.867827 -4.959882 2.758516 -0.262550 -0.301520 0.189260 -2.516317 -0.482863 -9.561548 -12.607876 11.451146 37.847901 -1.148627 11.604039 0.501205 1.603031 7.764257 -19.658117 12.646380 -17.554266 39.118900 7.819510 -9.103090 -27.293900 -15.061356 -23.776118 9.539954 -15.326892 1.454930 -7.566866 115.853702 -62.940949 -96.086663 -3.198806 2.396098 0.953330 -0.342900 0.344200 0.008260 10.754850 26.115592 15.200542 11.716186 3.388725 -10.624590 -127.002183 61.387854 -116.603599 2.381527 -1.215845 -0.085690 -0.066390 -0.264700 -0.373390 
-3.123410 17.449660 2.144570 8.974082 -28.210802 -23.633649 -15.865377 9.607968 7.365266 33.645810 1.794220 -31.804128 -78.263239 26.645037 15.371258 2.073460 11.825712 0.716412 0.433240 -0.054330 0.701770 18.075886 -9.352388 1.545209 -20.031120 -0.485276 7.559775 7.626473 -6.741686 6.943722 -0.908626 -5.057508 2.728238 -0.268170 -0.301540 0.193960 -2.586903 -0.518270 -9.511455 -11.287129 10.668765 38.980367 -2.035305 11.506854 1.708481 1.665547 6.941192 -19.321811 10.797186 -16.799290 39.201312 10.403730 -9.328660 -29.518920 -15.094276 -23.843982 9.376100 -17.146126 0.672609 -8.635726 111.003039 -61.681137 -88.149546 -3.168065 2.140953 0.959160 -0.360050 0.345390 0.009360 10.819173 26.808054 15.213684 12.563203 4.210101 -11.801143 -124.111086 58.490792 -109.347926 2.409368 -0.984340 -0.076620 -0.080910 -0.260700 -0.362730 
-3.179800 17.236500 2.156790 8.360739 -27.909643 -25.059780 -15.665839 9.941553 6.944372 29.841022 0.178533 -29.886362 -71.957104 26.763155 18.432063 2.032298 11.809401 0.728946 0.421690 -0.040180 0.674240 18.130312 -9.785509 1.754645 -18.290384 -0.950961 10.298642 6.871484 -6.972658 8.239282 -0.973339 -5.235296 2.707868 -0.249010 -0.277790 0.112220 -2.871407 -0.195053 -9.406786 -8.159270 8.882170 40.548991 -4.294876 11.311134 4.232937 1.654078 5.196883 -19.801131 7.679427 -15.727405 40.360414 13.676320 -10.322770 -30.831590 -15.484001 -25.678698 9.461989 -19.676766 1.063801 -12.055867 103.617907 -58.754858 -75.419921 -3.070293 1.919798 0.964110 -0.391520 0.332870 0.033490 11.529825 30.269225 15.925409 16.104625 4.919385 -17.423062 -116.118331 55.317675 -90.978096 2.491073 -0.335548 -0.118830 -0.004740 -0.281570 -0.339330 
-3.227940 17.000100 2.205760 5.368945 -28.877065 -25.066896 -15.432894 10.248762 6.604629 26.919060 -0.728899 -28.496097 -63.724152 27.105706 22.753880 1.982109 11.803386 0.699275 0.461130 0.013510 0.637220 18.228770 -10.267566 2.014118 -14.483622 -1.592135 12.296279 6.124979 -7.205270 10.825390 -1.048122 -5.355302 2.670293 -0.230800 -0.277480 0.108810 -3.292642 0.294824 -9.380293 -0.720170 5.306293 41.462888 -8.062929 11.063972 6.794880 2.406860 2.733716 -20.545157 3.185125 -14.638801 42.112351 16.737890 -12.243170 -31.781340 -17.103247 -27.874817 9.655821 -21.764841 1.221214 -15.357003 97.070950 -55.796358 -65.214012 -3.049201 2.127654 0.948210 -0.428380 0.336560 0.070990 12.113152 34.849171 16.400070 18.457087 5.321956 -26.535455 -109.742376 55.064921 -75.802023 2.725412 -0.345193 -0.080050 -0.011350 -0.301160 -0.290360 
-3.309750 16.774260 2.257520 3.660881 -28.839680 -24.581087 -15.287179 10.690390 6.187507 22.217819 -2.324195 -28.393474 -54.066667 27.102428 28.285585 1.840601 11.796077 0.715010 0.399170 -0.002450 0.545920 18.239699 -10.609654 2.214634 -12.046806 -1.830407 13.196759 5.373962 -7.386931 13.538468 -1.039166 -5.423817 2.727096 -0.208870 -0.180960 0.002710 -3.415637 0.312049 -9.276817 2.721143 3.807353 40.622995 -9.178423 10.987489 8.105735 2.928176 1.409669 -21.588215 0.998434 -13.957589 43.767064 17.322980 -13.539880 -31.261870 -20.280792 -30.331230 9.997850 -21.648285 2.046043 -17.513271 93.306616 -53.440919 -58.797309 -3.187256 2.174510 0.933690 -0.405060 0.284630 0.099260 14.692453 38.799245 16.779146 18.530661 5.561713 -35.330395 -101.448747 56.844301 -61.940645 3.241869 -0.696898 -0.160410 0.151790 -0.264920 -0.256860 
-3.377530 16.570450 2.319200 1.023905 -29.017797 -23.735697 -15.262316 11.175709 5.782944 18.187986 -3.737860 -27.980790 -44.685132 26.362797 34.009090 1.694316 11.690727 0.690083 0.562560 0.176630 0.581720 18.179764 -10.691909 2.383250 -9.523247 -2.016494 13.864223 5.845467 -7.756645 16.465857 -1.105249 -5.612930 2.642318 -0.092560 -0.225550 0.009440 -3.248950 -0.225061 -9.202783 6.117197 2.469984 38.900332 -8.523614 10.917182 12.398102 4.373144 -0.154936 -22.474364 -1.228884 -13.947955 42.745691 17.759180 -14.507740 -32.909400 -22.766645 -32.405614 10.058153 -21.692852 0.772501 -19.830785 92.037649 -52.478531 -57.079349 -3.263778 2.471281 0.914970 -0.448280 0.292790 0.170210 14.937069 43.420331 16.950640 16.562786 5.227747 -46.086908 -91.184422 59.130509 -50.169576 4.463023 -1.702140 -0.107140 0.120970 -0.344230 -0.227640 
-3.422960 16.400990 2.379020 -1.285744 -30.871719 -22.435178 -15.161800 11.561633 5.464500 15.332149 -3.715137 -26.868516 -38.796788 24.842771 35.867116 1.521635 11.268370 0.787581 0.684830 0.318640 0.609620 18.187582 -10.928860 2.480443 -7.505347 -1.371845 11.833538 6.239069 -8.204063 21.785986 -1.131003 -5.760316 2.565891 0.004030 -0.251190 -0.007330 -3.325123 -0.376990 -9.157547 10.542121 0.879700 36.608151 -8.994729 10.194302 16.478120 5.976741 -2.486196 -23.652416 -5.365521 -12.986862 43.104459 17.281610 -15.504070 -33.967270 -22.809693 -32.883112 9.563874 -22.620311 -0.640572 -21.324741 84.876631 -49.565377 -49.354149 -3.255315 2.792864 0.902950 -0.495680 0.302290 0.226930 12.501471 46.542832 17.971092 14.572731 8.927920 -52.104921 -80.016557 55.478009 -40.079987 5.412770 -2.411941 -0.078000 0.136100 -0.403360 -0.192540 
